<svg id="Layer_1" enable-background="new 0 0 512.085 512.085" height="512" viewBox="0 0 512.085 512.085" width="512" xmlns="http://www.w3.org/2000/svg"><g><g><path d="m366.476 512.085h-22.688c-56.654 0-102.746-46.091-102.746-102.746v-97.191h30v97.191c0 40.112 32.634 72.746 72.746 72.746h22.688z" fill="#5bc980"/></g><path d="m271.043 409.34v-97.191h-15v150.594c18.061 29.566 50.637 49.342 87.746 49.342h22.688v-30h-22.688c-40.112 0-72.746-32.633-72.746-72.745z" fill="#00a78e"/><path d="m359.675 85.762c5.387-8.611 8.512-18.783 8.512-29.69-.001-30.968-25.105-56.072-56.072-56.072s-56.072 25.104-56.072 56.072v29.385-29.385c0-30.968-25.104-56.072-56.072-56.072s-56.072 25.104-56.072 56.072c0 10.906 3.124 21.078 8.512 29.69l103.624 103.624z" fill="#bee75e"/><path d="m359.675 293.01c5.387 8.611 8.512 18.783 8.512 29.69 0 30.968-25.104 56.072-56.072 56.072s-56.072-25.104-56.072-56.072v-29.385 29.385c0 30.968-25.104 56.072-56.072 56.072s-56.072-25.104-56.072-56.072c0-10.906 3.124-21.078 8.512-29.69l103.624-103.624z" fill="#bee75e"/><path d="m359.667 293.018c8.611 5.387 18.783 8.512 29.69 8.512 30.968 0 56.072-25.104 56.072-56.072s-25.104-56.072-56.072-56.072h-29.385 29.385c30.968 0 56.072-25.104 56.072-56.072s-25.104-56.072-56.072-56.072c-10.906 0-21.078 3.124-29.69 8.512l-103.624 103.624z" fill="#5bc980"/><path d="m359.667 293.018c8.611 5.387 18.783 8.512 29.69 8.512 30.968 0 56.072-25.104 56.072-56.072s-25.104-56.072-56.072-56.072h-29.385 29.385c30.968 0 56.072-25.104 56.072-56.072s-25.104-56.072-56.072-56.072c-10.906 0-21.078 3.124-29.69 8.512l-103.624 103.624z" fill="#00a78e"/><g fill="#5bc980"><path d="m152.419 293.018c-8.611 5.387-18.783 8.512-29.69 8.512-30.968 0-56.072-25.104-56.072-56.072s25.104-56.072 56.072-56.072h29.385-29.385c-30.968 0-56.072-25.104-56.072-56.072s25.104-56.072 56.072-56.072c10.906 0 21.078 3.124 29.69 8.512l103.624 103.624z"/><path d="m368.186 56.072c0-30.968-25.104-56.072-56.071-56.072s-56.072 25.104-56.072 56.072v29.385 103.921l103.632-103.616c5.387-8.612 8.511-18.784 8.511-29.69z"/><path d="m359.675 293.01-103.632-103.617v103.921 29.385c0 30.968 25.104 56.072 56.072 56.072s56.072-25.104 56.072-56.072c-.001-10.906-3.125-21.078-8.512-29.689z"/></g></g></svg>